/* XPM */
static char * green_xpm[] = {
"35 34 133 2",
"  	c None",
". 	c #243F24",
"+ 	c #8AD795",
"@ 	c #88D793",
"# 	c #87D692",
"$ 	c #85D68F",
"% 	c #82D58E",
"& 	c #96DFA0",
"* 	c #94DF9F",
"= 	c #93DE9E",
"- 	c #91DE9C",
"; 	c #90DD9B",
"> 	c #90DB9A",
", 	c #8EDB99",
"' 	c #8DDA98",
") 	c #89DA95",
"! 	c #88D994",
"~ 	c #86D791",
"{ 	c #A3E6AB",
"] 	c #A1E4AA",
"^ 	c #9FE4A8",
"/ 	c #9EE3A8",
"( 	c #9CE3A6",
"_ 	c #9BE2A5",
": 	c #9AE1A4",
"< 	c #99E0A3",
"[ 	c #97E09F",
"} 	c #96DF9F",
"| 	c #94DF9D",
"1 	c #93DE9C",
"2 	c #8BDA96",
"3 	c #8BD896",
"4 	c #B0EBB7",
"5 	c #AFEAB6",
"6 	c #ADEAB4",
"7 	c #ADE8B4",
"8 	c #ABE8B2",
"9 	c #A8E9B0",
"0 	c #A8E7AF",
"a 	c #A6E7AD",
"b 	c #A5E6AD",
"c 	c #A2E5AA",
"d 	c #A1E4A9",
"e 	c #99E2A3",
"f 	c #98E1A2",
"g 	c #96E1A1",
"h 	c #B6EDBD",
"i 	c #B4EDBB",
"j 	c #B2EDBA",
"k 	c #B1ECBA",
"l 	c #B0EBB8",
"m 	c #AFEAB7",
"n 	c #ADEAB6",
"o 	c #ACE9B5",
"p 	c #AAE9B3",
"q 	c #BBEEC2",
"r 	c #B9EEC0",
"s 	c #B7EEBD",
"t 	c #B2EDB9",
"u 	c #B2EBB8",
"v 	c #85D691",
"w 	c #C1F0C6",
"x 	c #BFF0C5",
"y 	c #BDF0C4",
"z 	c #BBF0C3",
"A 	c #A4E7AD",
"B 	c #C6F3CB",
"C 	c #C6F1CB",
"D 	c #C4F1C9",
"E 	c #C2F1C7",
"F 	c #BDF0C3",
"G 	c #B6EDBB",
"H 	c #CDF4D1",
"I 	c #D3F6D7",
"J 	c #59A659",
"K 	c #A1E6AB",
"L 	c #9EE3A6",
"M 	c #CBF4CF",
"N 	c #CAF3CE",
"O 	c #C8F3CC",
"P 	c #C6F1CA",
"Q 	c #A4E7AF",
"R 	c #D1F6D6",
"S 	c #BDEEC2",
"T 	c #A3E6AD",
"U 	c #A0E3A8",
"V 	c #D1F4D5",
"W 	c #CFF4D3",
"X 	c #CDF5D2",
"Y 	c #CBF4D0",
"Z 	c #CAF3D0",
"` 	c #C8F3CE",
" .	c #B9EEBE",
"..	c #D9F6DC",
"+.	c #D5F6DA",
"@.	c #BFF0C6",
"#.	c #BBEEC1",
"$.	c #81D48C",
"%.	c #ADE8B1",
"&.	c #C0F1C7",
"*.	c #55A659",
"=.	c #74C77C",
"-.	c #7DD087",
";.	c #82D38D",
">.	c #B4EBB8",
",.	c #88D38C",
"'.	c #233C23",
").	c #518853",
"!.	c #66B566",
"~.	c #79CE83",
"{.	c #83D68F",
"].	c #A4E5AA",
"^.	c #93DA96",
"/.	c #254225",
"(.	c #4F8251",
"_.	c #569B56",
":.	c #62AF62",
"<.	c #6EBD71",
"[.	c #7ACB83",
"}.	c #90DB99",
"|.	c #91DC9A",
"1.	c #80CF87",
"2.	c #508552",
"3.	c #508753",
"4.	c #569F5A",
"5.	c #5FB265",
"6.	c #6FC277",
"7.	c #7ECF87",
"8.	c #539657",
"9.	c #59A859",
"0.	c #6AB76A",
"a.	c #579E57",
"b.	c #68B768",
"                                                                      ",
"                                                                      ",
"                                                                      ",
"                                                                      ",
"                                                                      ",
"                                                                      ",
"                                                                      ",
"                                                                      ",
"                                                                      ",
"                                                                      ",
"                                                                      ",
"                          . . . . .                                   ",
"                  . . . . + @ # $ % . . .                             ",
"          . . . . & * = - ; > , ' ) ! @ ~ . . .                       ",
"  . . . . { ] ^ / ( _ : < [ } | 1 - ; > , ' 2 3 . . .                 ",
". 4 5 6 7 8 9 0 a b { c d ^ / ( _ e f g & * = - ; > , . . .           ",
". ~ % h i j k l m n o p 9 0 a b { ] ^ / ( _ : < [ } | 1 - ; . . .     ",
". ; ' @ % q r s h i t u 4 5 6 7 8 9 0 a b { c d ^ / ( _ e f g & * .   ",
". : } - , ! v w x y z q r s h i j k l m n o p 9 0 a b { ] ^ v % 2 .   ",
". A ] _ [ = > ) ~ B C D E w x F q r s h i t u 4 5 6 7 % % 2 G H I .   ",
". J J 0 K L < | ; ' @ M N O B P D E w x y z q r % % 2 Q r x C M R .   ",
". S h J J 9 T U : } - , ! R V W X Y Z ` B % % ! : a o 4 h F D Z W .   ",
". ` D F  .J J p A ] _ [ = > ) ..+.I % % % ~ ; [ _ T 9 5 i q E ` w .   ",
"  . . Z C @.#.J J o 0 K L < | ; % $.$.$.~ ' - g ( c 0 n t r @.B %..   ",
"      . . Y B &.S J J n 9 T U : % *.=.-.;.) ; | : d a o k s @.>.,.'.  ",
"          . . H ` D F J J 5 p A % ).!.=.~.{., 1 < / b o ].^.. . /.    ",
"              . . W Z C @.J J 4 % (._.:.<.[.# }.< |.1.. . .           ",
"                  . . V Y B &.S % (.2.3.4.5.6.7.. . .                 ",
"                      . . R H ` % 8.9.0.a.. . '.                      ",
"                          . . I % b.. . '.                            ",
"                              . . .                                   ",
"                                                                      ",
"                                                                      ",
"                                                                      "};
