/* XPM */
static char * red_xpm[] = {
"35 34 106 2",
"  	c None",
". 	c #630000",
"+ 	c #EA777A",
"@ 	c #E97678",
"# 	c #E97477",
"$ 	c #E97275",
"% 	c #E77073",
"& 	c #EF8688",
"* 	c #EF8486",
"= 	c #EE8385",
"- 	c #EE8183",
"; 	c #ED8082",
"> 	c #EC7F81",
", 	c #EC7D7F",
"' 	c #EB7C7E",
") 	c #EA797B",
"! 	c #E9787A",
"~ 	c #F49597",
"{ 	c #F39294",
"] 	c #F39093",
"^ 	c #F38E91",
"/ 	c #F28D8F",
"( 	c #F28B8E",
"_ 	c #F18A8C",
": 	c #F1888B",
"< 	c #F08789",
"[ 	c #F08588",
"} 	c #EF8285",
"| 	c #EB7A7C",
"1 	c #EB787B",
"2 	c #F8A3A7",
"3 	c #F7A2A4",
"4 	c #F7A0A4",
"5 	c #F79EA2",
"6 	c #F69D9F",
"7 	c #F59CA0",
"8 	c #F59A9E",
"9 	c #F5989A",
"0 	c #F49799",
"a 	c #F49396",
"b 	c #F49194",
"c 	c #F0898B",
"d 	c #F9AAAE",
"e 	c #F9A8AC",
"f 	c #F8A7AB",
"g 	c #F8A5A9",
"h 	c #F7A4A8",
"i 	c #F69FA3",
"j 	c #FAAFB3",
"k 	c #F9AEB1",
"l 	c #F9ACB0",
"m 	c #FAB7BA",
"n 	c #FAB5B8",
"o 	c #FAB3B6",
"p 	c #FAB1B5",
"q 	c #FBBEC1",
"r 	c #FBBCBF",
"s 	c #FBBABD",
"t 	c #FAB9BC",
"u 	c #EB7A7D",
"v 	c #FCC5C8",
"w 	c #FDCCCF",
"x 	c #DB2424",
"y 	c #FCC3C6",
"z 	c #FCC1C4",
"A 	c #FCBFC2",
"B 	c #FDCACD",
"C 	c #FDC8CB",
"D 	c #FCC7C9",
"E 	c #FBC0C3",
"F 	c #FAADB1",
"G 	c #FDD2D4",
"H 	c #FDCED1",
"I 	c #E66F71",
"J 	c #F79EA0",
"K 	c #D82323",
"L 	c #DE5D60",
"M 	c #E5686B",
"N 	c #E76E71",
"O 	c #F9A6AA",
"P 	c #EA7174",
"Q 	c #5F0000",
"R 	c #CB0E12",
"S 	c #D54646",
"T 	c #E26568",
"U 	c #E87174",
"V 	c #EF7E81",
"W 	c #670000",
"X 	c #C8090E",
"Y 	c #D51C1C",
"Z 	c #D73A3A",
"` 	c #D95255",
" .	c #E26366",
"..	c #ED7E80",
"+.	c #EE7F82",
"@.	c #E56A6D",
"#.	c #C90C10",
"$.	c #CA0D11",
"%.	c #D61F23",
"&.	c #D53C40",
"*.	c #DA575A",
"=.	c #D2171B",
"-.	c #DA2727",
";.	c #D64B4B",
">.	c #D81D1D",
",.	c #D54A4A",
"                                                                      ",
"                                                                      ",
"                                                                      ",
"                                                                      ",
"                                                                      ",
"                                                                      ",
"                                                                      ",
"                                                                      ",
"                                                                      ",
"                                                                      ",
"                                                                      ",
"                          . . . . .                                   ",
"                  . . . . + @ # $ % . . .                             ",
"          . . . . & * = - ; > , ' ) ! @ # . . .                       ",
"  . . . . ~ { ] ^ / ( _ : < [ * } - ; > , ' | 1 . . .                 ",
". 2 3 4 5 6 7 8 9 0 ~ a b ] ^ / ( _ c < & * = - ; > , . . .           ",
". # % d e f g h 3 4 i 6 7 8 9 0 ~ { ] ^ / ( _ : < [ * } - ; . . .     ",
". ; ' @ % j k l d e f g 2 3 4 5 6 7 8 9 0 ~ a b ] ^ / ( _ c < & * .   ",
". _ [ - , ! $ m n o p j k l d e f g h 3 4 i 6 7 8 9 0 ~ { ] $ % | .   ",
". 0 { ( < = > ) # q r s t m n o j k l d e f g 2 3 4 5 % % u d v w .   ",
". x x 8 a ^ : * ; ' @ y z A q r s t m n o p j k % % u 0 k n r y B .   ",
". p d x x 7 ~ ] _ [ - , ! B C D v y z E q % % ! _ 9 i 2 d o s z D .   ",
". E s o F x x 6 0 { ( < = > ) G H w % % % # ; < ( ~ 7 3 e j t E m .   ",
"  . . z r n j x x i 8 a ^ : * ; % I I I # ' - < / a 8 4 f k n q J .   ",
"      . . y q m p x x 4 7 ~ ] _ % K L M N ) ; * _ b 9 i g l n O P Q   ",
"          . . v E s o x x 3 6 0 % R S L T U , } : ^ 0 i ~ V . . W     ",
"              . . D z r n x x 2 % X Y Z `  .# ..: +.@.. . .           ",
"                  . . C y q m p % X #.$.%.&.*.M . . .                 ",
"                      . . B v E % =.-.;.>.. . Q                       ",
"                          . . w % ,.. . Q                             ",
"                              . . .                                   ",
"                                                                      ",
"                                                                      ",
"                                                                      "};
