/* XPM */
static char * unknown_xpm[] = {
"35 34 153 2",
"  	c None",
". 	c #000000",
"+ 	c #7CAAD1",
"@ 	c #5396CA",
"# 	c #317CBC",
"$ 	c #396F9C",
"% 	c #365C79",
"& 	c #10314D",
"* 	c #000203",
"= 	c #3276AF",
"- 	c #1B415E",
"; 	c #2B6796",
"> 	c #1D4E74",
", 	c #244A67",
"' 	c #215074",
") 	c #2E658F",
"! 	c #3A6385",
"~ 	c #4B88BC",
"{ 	c #345979",
"] 	c #4078A7",
"^ 	c #2D76AE",
"/ 	c #1C496B",
"( 	c #4D91CA",
"_ 	c #266091",
": 	c #204F77",
"< 	c #286797",
"[ 	c #18476B",
"} 	c #1B476C",
"| 	c #70A6CF",
"1 	c #256596",
"2 	c #17466A",
"3 	c #1D4E78",
"4 	c #296292",
"5 	c #386283",
"6 	c #236190",
"7 	c #266BA1",
"8 	c #313131",
"9 	c #1A4971",
"0 	c #BFB09A",
"a 	c #BCAE99",
"b 	c #2B6592",
"c 	c #1B4C76",
"d 	c #256190",
"e 	c #174568",
"f 	c #C2B8A3",
"g 	c #C1B6A0",
"h 	c #BFB5A0",
"i 	c #BFB49E",
"j 	c #92B3CF",
"k 	c #529DD7",
"l 	c #D3C8B4",
"m 	c #D1C6B2",
"n 	c #D1C5B0",
"o 	c #D0C3AF",
"p 	c #C9BEA8",
"q 	c #C9BBA6",
"r 	c #C7BCA6",
"s 	c #C6BBA5",
"t 	c #85AFD0",
"u 	c #2F86D0",
"v 	c #286493",
"w 	c #DCCFBD",
"x 	c #DAD0BD",
"y 	c #DACFBB",
"z 	c #DACDB9",
"A 	c #D8CDB9",
"B 	c #D6CDB9",
"C 	c #D5CAB8",
"D 	c #D6CBB5",
"E 	c #D3CBB6",
"F 	c #CFC3AE",
"G 	c #CEC2AD",
"H 	c #CDC2AC",
"I 	c #C4BAA5",
"J 	c #C4B9A3",
"K 	c #BFB19C",
"L 	c #DFD4C2",
"M 	c #DFD2C0",
"N 	c #DDD3C0",
"O 	c #DDD1BE",
"P 	c #DAD2BF",
"Q 	c #D8CFBB",
"R 	c #529AD7",
"S 	c #CBC0AA",
"T 	c #CBBDA8",
"U 	c #E2D7C5",
"V 	c #E0D7C5",
"W 	c #E0D5C3",
"X 	c #D2C5B1",
"Y 	c #CCC1AB",
"Z 	c #C9BFAA",
"` 	c #E3DCCC",
" .	c #E3DCCA",
"..	c #E3DAC8",
"+.	c #E2D8C7",
"@.	c #358AD2",
"#.	c #1E5179",
"$.	c #C2B7A1",
"%.	c #C7BDA8",
"&.	c #E6E1D1",
"*.	c #E6DFCF",
"=.	c #E6DECD",
"-.	c #E3DECE",
";.	c #3C78AB",
">.	c #C2B6A1",
",.	c #EAE4D5",
"'.	c #EEE7D9",
").	c #CA4933",
"!.	c #D3C7B2",
"~.	c #CCC0AB",
"{.	c #EAE2D3",
"].	c #EAE1D1",
"^.	c #E9DFD0",
"/.	c #4798D6",
"(.	c #EEE5D7",
"_.	c #4090CD",
":.	c #EAE5D7",
"<.	c #E7E1D2",
"[.	c #E2D5C3",
"}.	c #B8A793",
"|.	c #BCAC97",
"1.	c #DFD1BE",
"2.	c #BFAE9A",
"3.	c #2F2F2F",
"4.	c #BB1C1C",
"5.	c #B08569",
"6.	c #B19D88",
"7.	c #B5A490",
"8.	c #BDAF9A",
"9.	c #C8B8A3",
"0.	c #660000",
"a.	c #BA1519",
"b.	c #C63C29",
"c.	c #B77358",
"d.	c #AE937B",
"e.	c #B4A28F",
"f.	c #C6B9A3",
"g.	c #C7B9A4",
"h.	c #B8A995",
"i.	c #EEE4D5",
"j.	c #BA1B1B",
"k.	c #C14032",
"l.	c #B1755E",
"m.	c #AE9881",
"n.	c #3689CF",
"o.	c #3A6081",
"p.	c #365B7B",
"q.	c #C83D2B",
"r.	c #589DD7",
"s.	c #1B486A",
"t.	c #285173",
"u.	c #599DD6",
"v.	c #26618F",
"                                                                      ",
"                          . . . . . . . . . .                         ",
"                      . . + @ @ # # $ $ % % & * .                     ",
"                  . . + @ = . . . . . . - % ; > & * .                 ",
"                * + @ , . .             . * ' ) ; ! & .               ",
"              . + ~ { .                     * ] ^ ; > *               ",
"              * + = / .                     . ( # ^ _ & .             ",
"            . + @ : *                         * @ ^ < [ .             ",
"            . @ # } .                         . | # 1 2 .             ",
"            . @ ^ 3 *                         * + # ^ 2 .             ",
"            . = # 4 5 * . .                 . + @ # ^ & .             ",
"            . = 6 7 = ~ @ @ * . 8 8         * + # ^ : *               ",
"              * 9 6 ^ ^ # # = . 0 a 8 8 8 * + @ # b & .               ",
"          8 8 8 * & c d ^ ^ e . f g h i * j k # 4 & *                 ",
"  8 8 8 8 l m n o . * & 2 & * p q r s * t k u v & * 8                 ",
"8 w x y z A B C D E l . . . o F G H * j k u v & * I J 8 8 8           ",
"8 K a L M N O P x y Q A B C D E l * t R u v & * S T p q r s 8 8 8     ",
"8 s f i a U V W L M N O w x y z * j R u 4 & * X n o F G H Y S Z p 8   ",
"8 H T r J h 0 `  ...+.U V W L . j + @.^ #.* A B C D E l m n 0 a $.8   ",
"8 E m G S %.I g K &.*.=.-.`  .* + R ;.b & . O w x y z a a >.L ,.'.8   ",
"8 ).).C !.o ~.p s f i {.].^.. j | /.^ c * +.U V a a >.E V  .*.{.(.8   ",
"8 +.L ).).B l n H T r J h (.. | _.^ < e . a a h H D Q w L ..=.].:.8   ",
"8 <.=...[.).).A E m G S %.I . _.^ < e & . K s S G l B x M U -.<.` 8   ",
"  8 8 ].*. .U ).).Q C !.o ~.p * & e & * K f r S F !.C y N V  .&.z 8   ",
"      8 8 {.&.` +.).).y B l n H . . . }.|.g s p H X D Q O W  .1.2.3.  ",
"          8 8 ,.<.=...).).x A E a 4.5.6.7.8.J q ~.o E Q l 9.8 8 0.    ",
"              8 8 :.].*. .).).w a a.b.c.d.e.K f.~.g.h.8 8 8           ",
"                  8 8 i.{.&.` +.. . . j.k.l.m.}.8 8 8                 ",
"                      8 8 (.,.* n.o.p.* q.8 8 3.                      ",
"                          8 . n.+ r.n.s..                             ",
"                            . t.u.n.v.& .                             ",
"                              * / e & *                               ",
"                                . . .                                 ",
"                                                                      "};
