/* XPM */
static char * yellow_xpm[] = {
"35 34 106 2",
"  	c None",
". 	c #635400",
"+ 	c #E9DD78",
"@ 	c #E9DD76",
"# 	c #E9DC74",
"$ 	c #E8DC73",
"% 	c #E6DA71",
"& 	c #EFE486",
"* 	c #EFE484",
"= 	c #EEE383",
"- 	c #EEE281",
"; 	c #EDE180",
"> 	c #ECE17F",
", 	c #ECE07D",
"' 	c #EBE07C",
") 	c #EADE79",
"! 	c #E8DC75",
"~ 	c #F4EA95",
"{ 	c #F3E992",
"] 	c #F3E890",
"^ 	c #F2E88F",
"/ 	c #F2E78D",
"( 	c #F1E78C",
"_ 	c #F1E68A",
": 	c #F1E388",
"< 	c #F0E587",
"[ 	c #F0E485",
"} 	c #EFE382",
"| 	c #EBDF7A",
"1 	c #F8EFA3",
"2 	c #F7EEA2",
"3 	c #F7EEA0",
"4 	c #F7EB9E",
"5 	c #F6ED9D",
"6 	c #F5EC9C",
"7 	c #F5EC9A",
"8 	c #F5EB98",
"9 	c #F4EB97",
"0 	c #F3E994",
"a 	c #F3E792",
"b 	c #F0E589",
"c 	c #F8F0AA",
"d 	c #F9F0A8",
"e 	c #F8EFA7",
"f 	c #F8EFA5",
"g 	c #F7EEA4",
"h 	c #F6ED9F",
"i 	c #F9F2B0",
"j 	c #F9F1AE",
"k 	c #F9F1AC",
"l 	c #FAF3B7",
"m 	c #FAF3B5",
"n 	c #FAF3B3",
"o 	c #FAF2B1",
"p 	c #F4EA97",
"q 	c #FBF5BE",
"r 	c #FBF4BC",
"s 	c #FBF4BA",
"t 	c #FAF3B9",
"u 	c #F9F0AA",
"v 	c #FCF6C5",
"w 	c #FDF9CC",
"x 	c #DBC324",
"y 	c #F3E68E",
"z 	c #FCF6C3",
"A 	c #FCF6C1",
"B 	c #FCF5BF",
"C 	c #FCF7CB",
"D 	c #FDF7C8",
"E 	c #FCF6C7",
"F 	c #FBF5C0",
"G 	c #FDF9D2",
"H 	c #FDF9CE",
"I 	c #E6D96F",
"J 	c #F7EE9E",
"K 	c #D8C123",
"L 	c #DECD5D",
"M 	c #E4D769",
"N 	c #F9EEA6",
"O 	c #E9DA72",
"P 	c #5F5100",
"Q 	c #CAB20F",
"R 	c #D5BF46",
"S 	c #E2D465",
"T 	c #E7DB72",
"U 	c #EFE07E",
"V 	c #675800",
"W 	c #C6AE0B",
"X 	c #D5BD1C",
"Y 	c #D7BF3A",
"Z 	c #D9C852",
"` 	c #E2D163",
" .	c #EDE17E",
"..	c #EEE07F",
"+.	c #E5D56A",
"@.	c #C8B00D",
"#.	c #C9B10E",
"$.	c #D5BE20",
"%.	c #D4C03D",
"&.	c #DAC957",
"*.	c #E4D469",
"=.	c #D0B819",
"-.	c #DAC327",
";.	c #D6C14B",
">.	c #D8BF1D",
",.	c #D5C34A",
"                                                                      ",
"                                                                      ",
"                                                                      ",
"                                                                      ",
"                                                                      ",
"                                                                      ",
"                                                                      ",
"                                                                      ",
"                                                                      ",
"                                                                      ",
"                                                                      ",
"                          . . . . .                                   ",
"                  . . . . + @ # $ % . . .                             ",
"          . . . . & * = - ; > , ' ) + @ ! . . .                       ",
"  . . . . ~ { ] ^ / ( _ : < [ * } - ; > , ' | ) . . .                 ",
". 1 2 3 4 5 6 7 8 9 ~ 0 a ] ^ / ( _ b < & * = - ; > , . . .           ",
". ! % c d e f g 2 3 h 5 6 7 8 9 ~ { ] ^ / ( _ : < [ * } - ; . . .     ",
". ; ' @ % i j k c d e f 1 2 3 4 5 6 7 8 9 ~ 0 a ] ^ / ( _ b < & * .   ",
". _ [ - , + $ l m n o i j k c d e f g 2 3 h 5 6 7 8 9 ~ { ] $ % | .   ",
". p { ( < = > ) ! q r s t l m n i j k c d e f 1 2 3 4 % % | u v w .   ",
". x x 7 0 y : * ; ' @ z A B q r s t l m n o i j % % | p j m r z C .   ",
". o c x x 6 ~ ] _ [ - , + C D E v z A F q % % + _ 8 h 1 c n s A E .   ",
". F s n j x x 5 p { ( < = > ) G H w % % % ! ; < ( ~ 6 2 d i t F l .   ",
"  . . A r m i x x h 7 0 y : * ; % I I I ! ' - < / 0 7 3 e j m q J .   ",
"      . . z q l o x x 3 6 ~ ] _ % K L M I ) ; * _ a 8 h f k m N O P   ",
"          . . v F s n x x 2 5 p % Q R L S T , } : ^ 9 h ~ U . . V     ",
"              . . E A r m x x 1 % W X Y Z ` #  .: ..+.. . .           ",
"                  . . D z q l o % W @.#.$.%.&.*.. . .                 ",
"                      . . C v F % =.-.;.>.. . P                       ",
"                          . . w % ,.. . P                             ",
"                              . . .                                   ",
"                                                                      ",
"                                                                      ",
"                                                                      "};
